<svg width="207" height="39" viewBox="0 0 207 39" fill="none" xmlns="http://www.w3.org/2000/svg">
<g clip-path="url(#clip0_11026_43)">
<path d="M114.754 11.817C113.836 10.5796 113.342 9.0766 113.344 7.53305C113.345 6.58444 113.533 5.64537 113.895 4.7695C114.258 3.89363 114.788 3.09815 115.457 2.42854C116.126 1.75895 116.919 1.22837 117.791 0.867142C118.665 0.505909 119.6 0.321121 120.543 0.323325H137.189C138.652 0.31628 140.08 0.759137 141.286 1.5924C142.491 2.42567 143.413 3.60944 143.928 4.98477C144.445 6.36009 144.529 7.86111 144.172 9.28623C143.813 10.7114 143.03 11.9923 141.927 12.9571C141.846 13.0354 141.782 13.1291 141.738 13.2328C141.695 13.3365 141.672 13.448 141.672 13.5608C141.672 13.6735 141.695 13.785 141.738 13.8886C141.782 13.9924 141.846 14.0862 141.927 14.1644C143.032 15.1278 143.816 16.4083 144.174 17.8334C144.533 19.2586 144.449 20.7599 143.933 22.1353C143.416 23.5107 142.494 24.6942 141.288 25.5263C140.082 26.3586 138.652 26.7994 137.189 26.7898H130.621C130.259 26.7887 129.901 26.8593 129.568 26.9973C129.234 27.1354 128.93 27.3385 128.674 27.5947C128.418 27.8509 128.216 28.1553 128.077 28.4905C127.939 28.8256 127.868 29.185 127.868 29.5479V31.5683C127.861 32.6494 127.616 33.7158 127.15 34.6905C126.684 35.6653 126.01 36.5244 125.176 37.2064C124.341 37.8883 123.366 38.3762 122.321 38.6348C121.277 38.8935 120.189 38.9167 119.134 38.7026C117.75 38.3445 116.488 37.6134 115.488 36.5881C114.486 35.5627 113.783 34.2822 113.453 32.8845C113.257 31.7782 113.323 30.6413 113.645 29.5653C113.967 28.4892 114.534 27.5041 115.305 26.6892C115.586 26.3982 115.743 26.0088 115.743 25.6035C115.743 25.1982 115.586 24.8088 115.305 24.5179C114.15 23.2904 113.462 21.6937 113.362 20.0075C113.261 18.3214 113.754 16.6535 114.754 15.2962C115.127 14.7936 115.329 14.1834 115.329 13.5566C115.329 12.9296 115.127 12.3194 114.754 11.817Z" fill="#FFF5DA"/>
<path fill-rule="evenodd" clip-rule="evenodd" d="M48.6227 38.8477V31.1005L43.1643 36.5786L36.4432 29.8332L41.9016 24.3551H34.1823V14.8158H41.9016L36.4432 9.33769L43.1643 2.59233L48.6227 8.07042V0.323242H58.1277V8.07037L63.586 2.59233L70.3072 9.33769L64.8488 14.8158H72.5681V24.3551H64.8488L70.3072 29.8332L63.586 36.5786L58.1277 31.1005V38.8477H48.6227ZM53.4034 13.45L59.5449 19.6137L53.4034 25.7775L47.2619 19.6137L53.4034 13.45Z" fill="#FFF5DA"/>
<path d="M35.0745 6.59135L26.4783 0.323242H14.0061L3.91573 7.68075L0.0615845 19.5854L3.91573 31.4901L14.0061 38.8476H26.4783L35.0927 32.5663L26.1934 24.1414L22.5632 26.7719H17.9L14.1273 24.0381L12.6863 19.6148L14.1273 15.1915L17.9 12.4577H22.5632L26.1401 15.0496L35.0745 6.59135Z" fill="#FFF5DA"/>
<path d="M102.761 0.951051V14.8449H109.703V38.0486H96.3929V17.2173C96.3929 15.3121 94.8541 13.7676 92.9556 13.7676C91.0573 13.7676 89.5183 15.3121 89.5183 17.2173V38.0486H76.2081V14.8198H83.1449V0.95105L102.761 0.951051Z" fill="#FFF5DA"/>
<path d="M155.822 17.5593C160.565 17.5593 164.41 13.7009 164.41 8.94129C164.41 4.18167 160.565 0.323242 155.822 0.323242C151.08 0.323241 147.235 4.18167 147.235 8.94129C147.235 13.7009 151.08 17.5593 155.822 17.5593Z" fill="#FFF5DA"/>
<path d="M164.255 31.7426C165.548 30.4446 165.548 28.3401 164.255 27.0422L158.146 20.9105C156.852 19.6125 154.756 19.6125 153.462 20.9105L147.353 27.0421C146.059 28.3401 146.059 30.4446 147.353 31.7426L153.462 37.8742C154.756 39.1722 156.852 39.1722 158.146 37.8742L164.255 31.7426Z" fill="#FFF5DA"/>
<path fill-rule="evenodd" clip-rule="evenodd" d="M168.391 0.95105H197.564V21.4973L188.863 30.1725H168.391V0.95105ZM188.113 15.5852C188.113 18.4351 185.811 20.7453 182.972 20.7453C180.132 20.7453 177.831 18.4351 177.831 15.5852C177.831 12.7355 180.132 10.4252 182.972 10.4252C185.811 10.4252 188.113 12.7355 188.113 15.5852Z" fill="#FFF5DA"/>
<path d="M188.863 30.1725V38.8477H206.207V21.4975L197.564 21.4974V30.1726L188.863 30.1725Z" fill="#FFF5DA"/>
</g>
<defs>
<clipPath id="clip0_11026_43">
<rect width="207" height="39" fill="white"/>
</clipPath>
</defs>
</svg>
