<svg width="1239" height="293" viewBox="0 0 1239 293" fill="none" xmlns="http://www.w3.org/2000/svg">
<path d="M178.984 41.2146L225.81 73.7219L178.984 123.257L157.506 107.971H134.093L110.68 123.257L105.262 145.702L110.68 169.115L134.093 184.402H157.506L178.984 169.115L225.81 217.683L178.984 250.964H110.68L56.6943 211.491L33.2813 145.702L56.6943 79.1398L110.68 41.2146H178.984Z" fill="#252525"/>
<rect x="129.642" y="132.545" width="27.4764" height="27.4764" rx="13.7382" fill="#252525"/>
<rect x="351.827" y="129.286" width="23.5334" height="23.5334" transform="rotate(45 351.827 129.286)" fill="#252525"/>
<path fill-rule="evenodd" clip-rule="evenodd" d="M324.653 42.5888L377.282 42.1821L377.598 83.0228L406.477 54.1434L443.693 91.3591L415.3 119.752H455.454V172.383H415.3L443.693 200.777L406.478 237.993L378.58 210.095L378.885 249.547L326.256 249.954L325.94 209.112L297.06 237.993L259.844 200.777L288.238 172.383H248.083L248.083 119.752H288.237L259.844 91.3591L297.06 54.1434L324.958 82.0418L324.653 42.5888ZM390.944 145.926L351.827 106.81L312.71 145.926L351.827 185.043L390.944 145.926Z" fill="#252525"/>
<rect x="594.075" y="121.709" width="71.2065" height="125.772" fill="#252525"/>
<rect x="484.169" y="121.709" width="71.2065" height="125.772" fill="#252525"/>
<path fill-rule="evenodd" clip-rule="evenodd" d="M629.678 44.5041H519.772V131.384H555.763C557.556 122.552 565.364 115.904 574.725 115.904C584.086 115.904 591.895 122.552 593.688 131.384H629.678V44.5041Z" fill="#252525"/>
<rect x="695.101" y="42.1821" width="168.341" height="75.0764" rx="35.4098" fill="#252525"/>
<rect x="695.101" y="109.906" width="168.341" height="75.0764" rx="35.4098" fill="#252525"/>
<path d="M695.101 197.513C695.101 183.734 703.094 171.206 715.59 165.4L721.394 162.703C744.866 151.797 771.725 168.935 771.725 194.816V214.587C771.725 234.143 755.872 249.997 736.315 249.997H730.511C710.954 249.997 695.101 234.143 695.101 214.587V197.513Z" fill="#252525"/>
<rect x="926.483" y="140.375" width="83.6496" height="83.6496" rx="15.4797" transform="rotate(45 926.483 140.375)" fill="#252525"/>
<rect x="876.621" y="33.4748" width="96.748" height="96.748" rx="47.4065" fill="#252525"/>
<path fill-rule="evenodd" clip-rule="evenodd" d="M995.836 43.1496H1153.73V201.429L1153.73 153.829L1106.13 201.429H995.836V43.1496ZM1046.53 122.289C1046.53 106.794 1059.09 94.2325 1074.59 94.2325C1090.08 94.2325 1102.65 106.794 1102.65 122.289C1102.65 137.785 1090.08 150.346 1074.59 150.346C1059.09 150.346 1046.53 137.785 1046.53 122.289Z" fill="#252525"/>
<path fill-rule="evenodd" clip-rule="evenodd" d="M1201.33 153.442H1154.12V201.429H1106.13V249.029H1201.33V153.442Z" fill="#252525"/>
</svg>
