<svg xmlns="http://www.w3.org/2000/svg">
  <symbol id="logo-asdf" viewBox="0 0 216 39">
    <path
      d="M119.754 11.817C118.836 10.5796 118.342 9.0766 118.344 7.53305C118.345 6.58444 118.533 5.64537 118.895 4.7695C119.258 3.89363 119.788 3.09815 120.457 2.42854C121.126 1.75895 121.919 1.22837 122.791 0.867142C123.665 0.505909 124.6 0.321121 125.543 0.323325H142.189C143.652 0.31628 145.08 0.759137 146.286 1.5924C147.491 2.42567 148.413 3.60944 148.928 4.98477C149.445 6.36009 149.529 7.86111 149.172 9.28623C148.813 10.7114 148.03 11.9923 146.927 12.9571C146.846 13.0354 146.782 13.1291 146.738 13.2328C146.695 13.3365 146.672 13.448 146.672 13.5608C146.672 13.6735 146.695 13.785 146.738 13.8886C146.782 13.9924 146.846 14.0862 146.927 14.1644C148.032 15.1278 148.816 16.4083 149.174 17.8334C149.533 19.2586 149.449 20.7599 148.933 22.1353C148.416 23.5107 147.494 24.6942 146.288 25.5263C145.082 26.3586 143.652 26.7994 142.189 26.7898H135.621C135.259 26.7887 134.901 26.8593 134.568 26.9973C134.234 27.1354 133.93 27.3385 133.674 27.5947C133.418 27.8509 133.216 28.1553 133.077 28.4905C132.939 28.8256 132.868 29.185 132.868 29.5479V31.5683C132.861 32.6494 132.616 33.7158 132.15 34.6905C131.684 35.6653 131.01 36.5244 130.176 37.2064C129.341 37.8883 128.366 38.3762 127.321 38.6348C126.277 38.8935 125.189 38.9167 124.134 38.7026C122.75 38.3445 121.488 37.6134 120.488 36.5881C119.486 35.5627 118.783 34.2822 118.453 32.8845C118.257 31.7782 118.323 30.6413 118.645 29.5653C118.967 28.4892 119.534 27.5041 120.305 26.6892C120.586 26.3982 120.743 26.0088 120.743 25.6035C120.743 25.1982 120.586 24.8088 120.305 24.5179C119.15 23.2904 118.462 21.6937 118.362 20.0075C118.261 18.3214 118.754 16.6535 119.754 15.2962C120.127 14.7936 120.329 14.1834 120.329 13.5566C120.329 12.9296 120.127 12.3194 119.754 11.817Z"/>
    <path fill-rule="evenodd" clip-rule="evenodd"
          d="M53.6227 38.8477V31.1005L48.1643 36.5786L41.4432 29.8332L46.9016 24.3551H39.1823V14.8158H46.9016L41.4432 9.33769L48.1643 2.59233L53.6227 8.07042V0.323242H63.1277V8.07037L68.586 2.59233L75.3072 9.33769L69.8488 14.8158H77.5681V24.3551H69.8488L75.3072 29.8332L68.586 36.5786L63.1277 31.1005V38.8477H53.6227ZM58.4034 13.45L64.5449 19.6137L58.4034 25.7775L52.2619 19.6137L58.4034 13.45Z"/>
    <path
      d="M40.0745 6.59135L31.4783 0.323242H19.0061L8.91573 7.68075L5.06158 19.5854L8.91573 31.4901L19.0061 38.8476H31.4783L40.0927 32.5663L31.1934 24.1414L27.5632 26.7719H22.9L19.1273 24.0381L17.6863 19.6148L19.1273 15.1915L22.9 12.4577H27.5632L31.1401 15.0496L40.0745 6.59135Z"/>
    <path
      d="M107.761 0.951051V14.8449H114.703V38.0486H101.393V17.2173C101.393 15.3121 99.8541 13.7676 97.9556 13.7676C96.0573 13.7676 94.5183 15.3121 94.5183 17.2173V38.0486H81.2081V14.8198H88.1449V0.95105L107.761 0.951051Z"/>
    <path
      d="M160.822 17.5593C165.565 17.5593 169.41 13.7009 169.41 8.94129C169.41 4.18167 165.565 0.323242 160.822 0.323242C156.08 0.323241 152.235 4.18167 152.235 8.94129C152.235 13.7009 156.08 17.5593 160.822 17.5593Z"/>
    <path
      d="M169.255 31.7426C170.548 30.4446 170.548 28.3401 169.255 27.0422L163.146 20.9105C161.852 19.6125 159.756 19.6125 158.462 20.9105L152.353 27.0421C151.059 28.3401 151.059 30.4446 152.353 31.7426L158.462 37.8742C159.756 39.1722 161.852 39.1722 163.146 37.8742L169.255 31.7426Z"/>
    <path fill-rule="evenodd" clip-rule="evenodd"
          d="M173.391 0.95105H202.564V21.4973L193.863 30.1725H173.391V0.95105ZM193.113 15.5852C193.113 18.4351 190.811 20.7453 187.972 20.7453C185.132 20.7453 182.831 18.4351 182.831 15.5852C182.831 12.7355 185.132 10.4252 187.972 10.4252C190.811 10.4252 193.113 12.7355 193.113 15.5852Z"/>
    <path d="M193.863 30.1725V38.8477H211.207V21.4975L202.564 21.4974V30.1726L193.863 30.1725Z"/>
  </symbol>
  <symbol id="logo" viewBox="0 0 207 39">
    <path
      d="M114.754 11.817C113.836 10.5796 113.342 9.0766 113.344 7.53305C113.345 6.58444 113.533 5.64537 113.895 4.7695C114.258 3.89363 114.788 3.09815 115.457 2.42854C116.126 1.75895 116.919 1.22837 117.791 0.867142C118.665 0.505909 119.6 0.321121 120.543 0.323325H137.189C138.652 0.31628 140.08 0.759137 141.286 1.5924C142.491 2.42567 143.413 3.60944 143.928 4.98477C144.445 6.36009 144.529 7.86111 144.172 9.28623C143.813 10.7114 143.03 11.9923 141.927 12.9571C141.846 13.0354 141.782 13.1291 141.738 13.2328C141.695 13.3365 141.672 13.448 141.672 13.5608C141.672 13.6735 141.695 13.785 141.738 13.8886C141.782 13.9924 141.846 14.0862 141.927 14.1644C143.032 15.1278 143.816 16.4083 144.174 17.8334C144.533 19.2586 144.449 20.7599 143.933 22.1353C143.416 23.5107 142.494 24.6942 141.288 25.5263C140.082 26.3586 138.652 26.7994 137.189 26.7898H130.621C130.259 26.7887 129.901 26.8593 129.568 26.9973C129.234 27.1354 128.93 27.3385 128.674 27.5947C128.418 27.8509 128.216 28.1553 128.077 28.4905C127.939 28.8256 127.868 29.185 127.868 29.5479V31.5683C127.861 32.6494 127.616 33.7158 127.15 34.6905C126.684 35.6653 126.01 36.5244 125.176 37.2064C124.341 37.8883 123.366 38.3762 122.321 38.6348C121.277 38.8935 120.189 38.9167 119.134 38.7026C117.75 38.3445 116.488 37.6134 115.488 36.5881C114.486 35.5627 113.783 34.2822 113.453 32.8845C113.257 31.7782 113.323 30.6413 113.645 29.5653C113.967 28.4892 114.534 27.5041 115.305 26.6892C115.586 26.3982 115.743 26.0088 115.743 25.6035C115.743 25.1982 115.586 24.8088 115.305 24.5179C114.15 23.2904 113.462 21.6937 113.362 20.0075C113.261 18.3214 113.754 16.6535 114.754 15.2962C115.127 14.7936 115.329 14.1834 115.329 13.5566C115.329 12.9296 115.127 12.3194 114.754 11.817Z"/>
    <path fill-rule="evenodd" clip-rule="evenodd"
          d="M48.6227 38.8477V31.1005L43.1643 36.5786L36.4432 29.8332L41.9016 24.3551H34.1823V14.8158H41.9016L36.4432 9.33769L43.1643 2.59233L48.6227 8.07042V0.323242H58.1277V8.07037L63.586 2.59233L70.3072 9.33769L64.8488 14.8158H72.5681V24.3551H64.8488L70.3072 29.8332L63.586 36.5786L58.1277 31.1005V38.8477H48.6227ZM53.4034 13.45L59.5449 19.6137L53.4034 25.7775L47.2619 19.6137L53.4034 13.45Z"/>
    <path
      d="M35.0745 6.59135L26.4783 0.323242H14.0061L3.91573 7.68075L0.0615845 19.5854L3.91573 31.4901L14.0061 38.8476H26.4783L35.0927 32.5663L26.1934 24.1414L22.5632 26.7719H17.9L14.1273 24.0381L12.6863 19.6148L14.1273 15.1915L17.9 12.4577H22.5632L26.1401 15.0496L35.0745 6.59135Z"/>
    <path
      d="M102.761 0.951051V14.8449H109.703V38.0486H96.3929V17.2173C96.3929 15.3121 94.8541 13.7676 92.9556 13.7676C91.0573 13.7676 89.5183 15.3121 89.5183 17.2173V38.0486H76.2081V14.8198H83.1449V0.95105L102.761 0.951051Z"/>
    <path
      d="M155.822 17.5593C160.565 17.5593 164.41 13.7009 164.41 8.94129C164.41 4.18167 160.565 0.323242 155.822 0.323242C151.08 0.323241 147.235 4.18167 147.235 8.94129C147.235 13.7009 151.08 17.5593 155.822 17.5593Z"/>
    <path
      d="M164.255 31.7426C165.548 30.4446 165.548 28.3401 164.255 27.0422L158.146 20.9105C156.852 19.6125 154.756 19.6125 153.462 20.9105L147.353 27.0421C146.059 28.3401 146.059 30.4446 147.353 31.7426L153.462 37.8742C154.756 39.1722 156.852 39.1722 158.146 37.8742L164.255 31.7426Z"/>
    <path fill-rule="evenodd" clip-rule="evenodd"
          d="M168.391 0.95105H197.564V21.4973L188.863 30.1725H168.391V0.95105ZM188.113 15.5852C188.113 18.4351 185.811 20.7453 182.972 20.7453C180.132 20.7453 177.831 18.4351 177.831 15.5852C177.831 12.7355 180.132 10.4252 182.972 10.4252C185.811 10.4252 188.113 12.7355 188.113 15.5852Z"/>
    <path d="M188.863 30.1725V38.8477H206.207V21.4975L197.564 21.4974V30.1726L188.863 30.1725Z"/>
  </symbol>
</svg>
