<svg xmlns="http://www.w3.org/2000/svg">
  <symbol id="logo" viewBox="0 0 207 39">
    <path
      d="M114.754 11.817C113.836 10.5796 113.342 9.0766 113.344 7.53305C113.345 6.58444 113.533 5.64537 113.895 4.7695C114.258 3.89363 114.788 3.09815 115.457 2.42854C116.126 1.75895 116.919 1.22837 117.791 0.867142C118.665 0.505909 119.6 0.321121 120.543 0.323325H137.189C138.652 0.31628 140.08 0.759137 141.286 1.5924C142.491 2.42567 143.413 3.60944 143.928 4.98477C144.445 6.36009 144.529 7.86111 144.172 9.28623C143.813 10.7114 143.03 11.9923 141.927 12.9571C141.846 13.0354 141.782 13.1291 141.738 13.2328C141.695 13.3365 141.672 13.448 141.672 13.5608C141.672 13.6735 141.695 13.785 141.738 13.8886C141.782 13.9924 141.846 14.0862 141.927 14.1644C143.032 15.1278 143.816 16.4083 144.174 17.8334C144.533 19.2586 144.449 20.7599 143.933 22.1353C143.416 23.5107 142.494 24.6942 141.288 25.5263C140.082 26.3586 138.652 26.7994 137.189 26.7898H130.621C130.259 26.7887 129.901 26.8593 129.568 26.9973C129.234 27.1354 128.93 27.3385 128.674 27.5947C128.418 27.8509 128.216 28.1553 128.077 28.4905C127.939 28.8256 127.868 29.185 127.868 29.5479V31.5683C127.861 32.6494 127.616 33.7158 127.15 34.6905C126.684 35.6653 126.01 36.5244 125.176 37.2064C124.341 37.8883 123.366 38.3762 122.321 38.6348C121.277 38.8935 120.189 38.9167 119.134 38.7026C117.75 38.3445 116.488 37.6134 115.488 36.5881C114.486 35.5627 113.783 34.2822 113.453 32.8845C113.257 31.7782 113.323 30.6413 113.645 29.5653C113.967 28.4892 114.534 27.5041 115.305 26.6892C115.586 26.3982 115.743 26.0088 115.743 25.6035C115.743 25.1982 115.586 24.8088 115.305 24.5179C114.15 23.2904 113.462 21.6937 113.362 20.0075C113.261 18.3214 113.754 16.6535 114.754 15.2962C115.127 14.7936 115.329 14.1834 115.329 13.5566C115.329 12.9296 115.127 12.3194 114.754 11.817Z"/>
    <path fill-rule="evenodd" clip-rule="evenodd"
          d="M48.6227 38.8477V31.1005L43.1643 36.5786L36.4432 29.8332L41.9016 24.3551H34.1823V14.8158H41.9016L36.4432 9.33769L43.1643 2.59233L48.6227 8.07042V0.323242H58.1277V8.07037L63.586 2.59233L70.3072 9.33769L64.8488 14.8158H72.5681V24.3551H64.8488L70.3072 29.8332L63.586 36.5786L58.1277 31.1005V38.8477H48.6227ZM53.4034 13.45L59.5449 19.6137L53.4034 25.7775L47.2619 19.6137L53.4034 13.45Z"/>
    <path
      d="M35.0745 6.59135L26.4783 0.323242H14.0061L3.91573 7.68075L0.0615845 19.5854L3.91573 31.4901L14.0061 38.8476H26.4783L35.0927 32.5663L26.1934 24.1414L22.5632 26.7719H17.9L14.1273 24.0381L12.6863 19.6148L14.1273 15.1915L17.9 12.4577H22.5632L26.1401 15.0496L35.0745 6.59135Z"/>
    <path
      d="M102.761 0.951051V14.8449H109.703V38.0486H96.3929V17.2173C96.3929 15.3121 94.8541 13.7676 92.9556 13.7676C91.0573 13.7676 89.5183 15.3121 89.5183 17.2173V38.0486H76.2081V14.8198H83.1449V0.95105L102.761 0.951051Z"/>
    <path
      d="M155.822 17.5593C160.565 17.5593 164.41 13.7009 164.41 8.94129C164.41 4.18167 160.565 0.323242 155.822 0.323242C151.08 0.323241 147.235 4.18167 147.235 8.94129C147.235 13.7009 151.08 17.5593 155.822 17.5593Z"/>
    <path
      d="M164.255 31.7426C165.548 30.4446 165.548 28.3401 164.255 27.0422L158.146 20.9105C156.852 19.6125 154.756 19.6125 153.462 20.9105L147.353 27.0421C146.059 28.3401 146.059 30.4446 147.353 31.7426L153.462 37.8742C154.756 39.1722 156.852 39.1722 158.146 37.8742L164.255 31.7426Z"/>
    <path fill-rule="evenodd" clip-rule="evenodd"
          d="M168.391 0.95105H197.564V21.4973L188.863 30.1725H168.391V0.95105ZM188.113 15.5852C188.113 18.4351 185.811 20.7453 182.972 20.7453C180.132 20.7453 177.831 18.4351 177.831 15.5852C177.831 12.7355 180.132 10.4252 182.972 10.4252C185.811 10.4252 188.113 12.7355 188.113 15.5852Z"/>
    <path d="M188.863 30.1725V38.8477H206.207V21.4975L197.564 21.4974V30.1726L188.863 30.1725Z"/>
  </symbol>
  <symbol id="arrow-link" viewBox="0 0 8 8" stroke="none">
    <path d="M1.63621 7.60711L0.916037 6.88694L6.27115 1.52259H2.13479L2.14402 0.525435H7.98848V6.37913H6.98209L6.99132 2.24276L1.63621 7.60711Z"/>
  </symbol>
  <symbol id="planet" viewBox="0 0 13 13" fill="none">
    <g opacity="0.6" clip-path="url(#clip0_3002_130)">
      <path
        d="M12.05 6.08008C12.05 3.04251 9.58755 0.580078 6.54999 0.580078C3.51242 0.580078 1.04999 3.04251 1.04999 6.08008C1.04999 9.11764 3.51242 11.5801 6.54999 11.5801C9.58755 11.5801 12.05 9.11764 12.05 6.08008Z"
        fill="none"/>
      <path d="M1.29999 6.08008H11.8" fill="none"/>
      <path
        d="M8.29999 6.08008C8.29999 7.69285 8.054 9.13067 7.67282 10.1472C7.48153 10.6573 7.26582 11.0353 7.05166 11.2769C6.83698 11.519 6.66631 11.5801 6.54999 11.5801C6.43367 11.5801 6.263 11.519 6.04832 11.2769C5.83416 11.0353 5.61845 10.6573 5.42716 10.1472C5.04598 9.13067 4.79999 7.69285 4.79999 6.08008C4.79999 4.46731 5.04598 3.02949 5.42716 2.013C5.61845 1.50291 5.83416 1.12485 6.04832 0.883291C6.263 0.641154 6.43367 0.580078 6.54999 0.580078C6.66631 0.580078 6.83698 0.641154 7.05166 0.883291C7.26582 1.12485 7.48153 1.50291 7.67282 2.013C8.054 3.02949 8.29999 4.46731 8.29999 6.08008Z"
        fill="none"/>
    </g>
    <defs>
      <clipPath id="clip0_3002_130">
        <rect width="12" height="12" transform="translate(0.549988 0.0800781)"/>
      </clipPath>
    </defs>
  </symbol>
  <symbol id="arrow-download" viewBox="0 0 9 11">
    <path d="M4.65674 0.699396V8.22959L7.55156 5.32561L8.26611 6.03099L4.1529 10.135L0.0488484 6.03099L0.745071 5.32561L3.64905 8.22959V0.699396H4.65674Z"
          stroke="none" fill-opacity="0.6"/>
  </symbol>
  <symbol id="figma" viewBox="0 0 120 44">
    <g clip-path="url(#clip0_3002_86)">
      <path d="M0 0.982077V34.5397L4.32351 34.553V18.5725H14.7478V14.3485H4.32351V5.20401H17.8997V0.97998L0 0.982077Z" stroke="none"/>
      <path
        d="M25.6817 7.79416C27.2389 7.79416 28.5014 6.53339 28.5014 4.97814C28.5014 3.4229 27.2389 2.16211 25.6817 2.16211C24.1244 2.16211 22.862 3.4229 22.862 4.97814C22.862 6.53339 24.1244 7.79416 25.6817 7.79416Z"
        stroke="none"/>
      <path d="M23.4823 12.0181V34.5462H27.8058V12.0181H23.4823Z" stroke="none"/>
      <path fill-rule="evenodd" clip-rule="evenodd"
            d="M43.8417 11.3608C38.1004 11.3608 34.0937 16.2102 34.0937 21.9678C34.0937 27.7254 38.1004 32.5748 43.8417 32.5748C46.4701 32.5748 48.6364 31.5585 50.2129 29.904V32.9034C50.2129 36.6359 47.2771 39.7557 43.4457 39.7557C42.0685 39.7557 40.7001 39.2224 39.61 38.4721L37.4437 42.2192C39.1738 43.3332 41.2342 43.9797 43.4457 43.9797C49.5709 43.9797 54.5364 39.0207 54.5364 32.9034V12.0179H50.2129V14.0316C48.6364 12.3771 46.4701 11.3608 43.8417 11.3608ZM38.4172 21.9678C38.4172 18.3939 41.1545 15.5848 44.3117 15.5848C47.4689 15.5848 50.2062 18.3939 50.2062 21.9678C50.2062 25.5417 47.4689 28.3508 44.3117 28.3508C41.1545 28.3508 38.4172 25.5417 38.4172 21.9678Z"
            stroke="none"/>
      <path
        d="M70.1151 15.5848C67.5586 15.5848 65.4862 17.7485 65.4862 20.3017V34.546H61.1627V12.0179H65.4862V14.0816C66.753 12.4461 68.6194 11.3608 71.055 11.3608C74.0845 11.3608 76.4097 12.8636 77.7564 15.1634C79.2538 12.942 81.6966 11.3608 84.6365 11.3608C89.5574 11.3608 92.6201 15.3257 92.6491 20.2313C92.6492 20.2461 92.6492 20.2609 92.6491 20.2757V20.2774C92.6491 20.2852 92.6491 20.2938 92.6491 20.3017V34.546H88.3256V20.3017C88.3256 17.7485 86.2531 15.5848 83.6966 15.5848C81.1401 15.5848 79.0676 17.7485 79.0676 20.3017V34.546H74.7441V20.3017C74.7441 17.7485 72.6717 15.5848 70.1151 15.5848Z"
        stroke="none"/>
      <path fill-rule="evenodd" clip-rule="evenodd"
            d="M115.676 14.5716C113.753 12.5881 111.119 11.3608 108.063 11.3608C101.631 11.3608 97.0666 16.7995 97.0666 23.2819C97.0666 29.7643 101.631 35.2031 108.063 35.2031C111.119 35.2031 113.753 33.9758 115.676 31.9922V34.546H120V12.0179H115.676V14.5716ZM101.39 23.2819C101.39 18.9813 104.687 15.5848 108.533 15.5848C112.379 15.5848 115.676 18.9813 115.676 23.2819C115.676 27.5826 112.379 30.9791 108.533 30.9791C104.687 30.9791 101.39 27.5826 101.39 23.2819Z"
            stroke="none"/>
    </g>
    <defs>
      <clipPath id="clip0_3002_86">
        <rect width="120" height="43" stroke="none" transform="translate(0 0.97998)"/>
      </clipPath>
    </defs>
  </symbol>
  <symbol id="hourglass" viewBox="0 0 12 13">
    <path
      d="M0 0.780029C-1.3911e-07 2.37133 0.63214 3.89745 1.75736 5.02267C2.88258 6.14789 4.4087 6.78003 6 6.78003C7.5913 6.78003 9.11742 6.14789 10.2426 5.02267C11.3679 3.89745 12 2.37133 12 0.780031L0 0.780029Z"
      stroke="none"/>
    <path
      d="M12 12.78C12 11.1887 11.3679 9.66261 10.2426 8.53739C9.11742 7.41217 7.5913 6.78003 6 6.78003C4.4087 6.78003 2.88258 7.41217 1.75736 8.53739C0.632141 9.66261 2.40279e-07 11.1887 0 12.78H12Z"
      stroke="none"/>
  </symbol>
  <symbol id="sun" viewBox="0 0 12 13">
    <path
      d="M7.86228 0.105957H5.13847V2.84199L3.2039 0.907423L1.27788 2.83345L3.21229 4.76786H0.476562V7.49167H3.21249L1.27788 9.42628L3.2039 11.3523L5.13847 9.41778V12.1536H7.86228V9.41788L9.79683 11.3524L11.7229 9.42638L9.78815 7.49167H12.5242V4.76786H9.78835L11.7229 2.83336L9.79683 0.907333L7.86228 2.84189V0.105957Z"
      stroke="none"/>
  </symbol>
  <symbol id="burger" viewBox="0 0 12 13">
    <path
      d="M8.99976 0.800049H2.99976C1.3429 0.800049 -0.000244141 2.14319 -0.000244141 3.80005C-0.000244141 5.4569 1.3429 6.80005 2.99976 6.80005H8.99976C10.6566 6.80005 11.9998 5.4569 11.9998 3.80005C11.9998 2.14319 10.6566 0.800049 8.99976 0.800049Z"
      stroke="none"/>
    <path
      d="M8.99976 6.80005H2.99976C1.3429 6.80005 -0.000244141 8.14319 -0.000244141 9.80005C-0.000244141 11.4569 1.3429 12.8 2.99976 12.8H8.99976C10.6566 12.8 11.9998 11.4569 11.9998 9.80005C11.9998 8.14319 10.6566 6.80005 8.99976 6.80005Z"
      stroke="none"/>
  </symbol>
  <symbol id="back-to-top" viewBox="0 0 46 47">
    <path d="M13 23.28L29 15.28V31.28L13 23.28Z" fill="white"/>
  </symbol>
</svg>
